<svg enable-background="new 0 0 1453.4 405" viewBox="0 0 1453.4 405" xmlns="http://www.w3.org/2000/svg"><g fill="#fff"><path d="m294.2 88.3v24.3h48.9v24.2h-48.9v37.9h-31.3v-110.6h86.8v24.2z"/><path d="m364.4 64.1h31.3v110.7h-31.3z"/><path d="m523.3 64.1v110.7h-25.8l-48.9-59v59h-30.6v-110.7h25.8l48.9 59v-59z"/><path d="m545.4 64.1h52.3c36.7 0 61.8 21.3 61.8 55.3s-25.1 55.3-61.8 55.3h-52.3zm51.1 85.7c18.8 0 31.5-11.2 31.5-30.4s-12.6-30.4-31.5-30.4h-19.8v60.7h19.8z"/><path d="m781.3 135.1v39.7h-31.3v-40.2l-42.2-70.5h33l26.2 44 26.2-44h30.4z"/><path d="m821.2 119.4c0-33.2 26.1-57.6 61.5-57.6s61.5 24.3 61.5 57.6c0 33.2-26.1 57.6-61.5 57.6s-61.5-24.4-61.5-57.6zm91.4 0c0-19.1-13.1-31.6-29.9-31.6s-29.9 12.5-29.9 31.6 13.1 31.6 29.9 31.6c16.7.1 29.9-12.4 29.9-31.6z"/><path d="m959.7 125.4v-61.3h31.3v60.4c0 19 7.9 26.6 21 26.6 13 0 20.9-7.6 20.9-26.6v-60.4h30.8v61.3c0 33-19.3 51.5-52 51.5-32.7.1-52-18.4-52-51.5z"/><path d="m1133.3 145.4h-17.1v29.4h-31.3v-110.7h50.6c30.2 0 49.2 15.7 49.2 41 0 16.3-7.9 28.3-21.7 34.9l23.9 34.8h-33.5zm.3-56.6h-17.4v32.4h17.4c13 0 19.4-6 19.4-16.1 0-10.3-6.4-16.3-19.4-16.3z"/><path d="m490.6 260.7h-34v-24.8h99.1v24.8h-33.7v85.9h-31.3v-85.9z"/><path d="m672.8 235.9v110.7h-31.3v-43.2h-42.7v43.2h-31.3v-110.7h31.3v41.6h42.7v-41.6z"/><path d="m694.9 235.9h31.3v110.7h-31.3z"/><path d="m853.8 235.9v110.7h-25.8l-48.9-59v59h-30.7v-110.7h25.8l48.9 59v-59z"/><path d="m950.1 288.9h27.7v45.9c-12.8 9.2-30.4 14.1-46.5 14.1-35.3 0-61-23.9-61-57.6s25.8-57.6 61.7-57.6c20.7 0 37.5 7.1 48.4 20.2l-19.9 18c-7.6-8.4-16.3-12.3-26.9-12.3-19 0-31.6 12.5-31.6 31.6 0 18.7 12.6 31.6 31.3 31.6 5.9 0 11.4-1.1 16.9-3.6v-30.3z"/></g></svg>